<svg xmlns="http://www.w3.org/2000/svg" xmlns:wrs="http://www.wiris.com/xml/cvs-extension" height="45" width="110" wrs:baseline="30"><!--MathML: <math xmlns="http://www.w3.org/1998/Math/MathML"><mfrac><mn>5</mn><mn>4</mn></mfrac><mo>&#xA0;</mo><mfrac><msqrt><mn>10</mn></msqrt><mn>4</mn></mfrac><mo>&#xA0;</mo><mfrac><msqrt><mn>13</mn></msqrt><mn>3</mn></mfrac></math>--><defs><style type="text/css"/></defs><line stroke="#000000" stroke-linecap="square" stroke-width="1" x1="2.5" x2="14.5" y1="24.5" y2="24.5"/><text font-family="Arial" font-size="16" text-anchor="middle" x="8.5" y="19">5</text><text font-family="Arial" font-size="16" text-anchor="middle" x="8.5" y="41">4</text><line stroke="#000000" stroke-linecap="square" stroke-width="1" x1="23.5" x2="60.5" y1="24.5" y2="24.5"/><polyline fill="none" points="12,-16 11,-16 5,0 2,-6" stroke="#000000" stroke-linecap="square" stroke-width="1" transform="translate(25.5,20.5)"/><polyline fill="none" points="5,0 2,-6 0,-5" stroke="#000000" stroke-linecap="square" stroke-width="1" transform="translate(25.5,20.5)"/><line stroke="#000000" stroke-linecap="square" stroke-width="1" x1="37.5" x2="58.5" y1="4.5" y2="4.5"/><text font-family="Arial" font-size="16" text-anchor="middle" x="48.5" y="19">10</text><text font-family="Arial" font-size="16" text-anchor="middle" x="42.5" y="41">4</text><line stroke="#000000" stroke-linecap="square" stroke-width="1" x1="69.5" x2="106.5" y1="24.5" y2="24.5"/><polyline fill="none" points="12,-16 11,-16 5,0 2,-6" stroke="#000000" stroke-linecap="square" stroke-width="1" transform="translate(71.5,20.5)"/><polyline fill="none" points="5,0 2,-6 0,-5" stroke="#000000" stroke-linecap="square" stroke-width="1" transform="translate(71.5,20.5)"/><line stroke="#000000" stroke-linecap="square" stroke-width="1" x1="83.5" x2="104.5" y1="4.5" y2="4.5"/><text font-family="Arial" font-size="16" text-anchor="middle" x="94.5" y="19">13</text><text font-family="Arial" font-size="16" text-anchor="middle" x="88.5" y="41">3</text></svg>